<svg xmlns="http://www.w3.org/2000/svg" viewBox="0 0 931 633.235">
  <g>
    <path fill="#e6e6e6" d="M120.363 297.375h703.576v333.859H120.363z" />
    <path fill="#fff" d="M140.482 326.004h663.339v278.549H140.482z" />
    <path fill="#e6e6e6" d="M675.712 377.851h17.177v17.177h-17.177z" />
    <path fill="currentColor" d="M217.543 377.851h17.177v17.177h-17.177z" />
    <path fill="#e6e6e6" d="M217.046 427.053h57.258v57.258h-57.258z" />
    <path fill="currentColor" d="M120.063 278.086h703.576v29.89H120.063z" />
    <circle cx="142.275" cy="299.662" r="5.54" fill="#fff" />
    <circle cx="163.303" cy="299.662" r="5.54" fill="#fff" />
    <circle cx="184.332" cy="299.662" r="5.54" fill="#fff" />
    <path fill="#e6e6e6" d="M0 631.235h931v2H0z" />
    <path fill="#e6e6e6" d="M333.688 432.78h140.281v8.053H333.688z" />
    <path fill="currentColor" d="M333.688 462.154h216.625v8.053H333.688z" />
    <path fill="#e6e6e6" d="M333.688 489.827h176.544v8.053H333.688z" />
    <path fill="#e6e6e6" d="M333.688 517.398h103.064v8.053H333.688z" />
    <path fill="#e6e6e6" d="M333.688 544.967h155.55v8.053h-155.55z" />
    <path fill="#e6e6e6" d="M705.296 377.851h17.177v17.177h-17.177z" />
    <path fill="#e6e6e6" d="M734.879 377.851h17.177v17.177h-17.177z" />
    <circle cx="717.171" cy="490.566" r="34.884" fill="currentColor" opacity=".997" style="isolation:isolate" />
    <circle cx="188.489" cy="55.184" r="39.273" fill="#2f2e41" />
    <path d="M90.753 391.21h-17.2l-8.181-66.327h25.379Z" fill="#feb8b8" />
    <path d="M61.275 386.295h33.163v20.881H40.394a20.881 20.881 0 0 1 20.881-20.881Z" fill="#2f2e41" />
    <path d="m63.91 381.612-16.406-5.149 12.052-65.735 24.214 7.6Z" fill="#feb8b8" />
    <path d="m37.246 368.1 31.642 9.93-6.252 19.923-51.564-16.182a20.881 20.881 0 0 1 26.175-13.67Z" fill="#2f2e41" />
    <path d="M69.505 355.145a6.258 6.258 0 0 1-2.2-.4l-12.655-4.743a6.334 6.334 0 0 1-3.947-7.27c3.185-14.322 14.04-63.078 19.984-89.229 7.049-31.019 109.885-36.783 114.259-37.013l.36-.019 11.568 14.531c4.18 13.436 2.855 23.916-3.938 31.15-19.823 21.105-79.006 8.01-86.063 6.352l-31.455 82.577a6.33 6.33 0 0 1-5.91 4.064Z" fill="#2f2e41" />
    <path d="M87.739 364.964a6.255 6.255 0 0 1-2.2-.4l-12.651-4.744a6.333 6.333 0 0 1-3.947-7.271c3.185-14.321 14.04-63.077 19.984-89.228 7.049-31.019 109.885-36.783 114.259-37.013l.36-.019 11.564 14.535c4.18 13.436 2.855 23.916-3.938 31.15-19.822 21.1-79.006 8.01-86.063 6.351L93.648 360.9a6.33 6.33 0 0 1-5.91 4.064Z" fill="#2f2e41" />
    <path d="M51.138 162.955a14.799 14.799 0 0 1 1.241 1.966l69.178 7.288 9.96-13.654 22.569 12.335-19.559 33.132-84.841-21.632a14.722 14.722 0 1 1 1.454-19.436Z" fill="#feb8b8" />
    <path d="M211.897 246.388a6.314 6.314 0 0 1-2.875-.7c-13.833-7.034-40.769-19.215-65.747-21.764a6.161 6.161 0 0 1-4.342-2.454 6.338 6.338 0 0 1-1.169-4.924c2.254-12.477 7.424-44.249 6.758-69.712a34.5 34.5 0 0 1 26.063-34.319 112.014 112.014 0 0 1 13.9-2.741 34.779 34.779 0 0 1 38.655 40.342c-4.454 26.388-8.945 63.244-5.042 88.972a6.322 6.322 0 0 1-2.551 6.1 6.213 6.213 0 0 1-3.65 1.2Z" fill="#ccc" />
    <path d="M145.803 179.27a6.314 6.314 0 0 1-2.506-.523l-18.021-7.8a6.319 6.319 0 0 1-3.285-8.3l13.93-32.179a16.13 16.13 0 1 1 29.697 12.602l-.092.212-13.93 32.18a6.328 6.328 0 0 1-5.793 3.808Z" fill="#ccc" />
    <circle cx="187.054" cy="64.377" r="34.45" fill="#feb8b8" />
    <path d="M151.984 47.448a124.255 124.255 0 0 0 53.757 17.713l-5.667-6.789a41.638 41.638 0 0 0 12.863 2.554 14.087 14.087 0 0 0 11.483-5.375 13.1 13.1 0 0 0 .877-12.1 24.816 24.816 0 0 0-7.807-9.763 46.482 46.482 0 0 0-43.263-7.732 27.779 27.779 0 0 0-12.922 8.289c-3.266 4.029-9.553 7.619-7.881 12.528Z" fill="#2f2e41" />
    <path d="M190.134 18.427A66.918 66.918 0 0 1 214.479 2.68 34.253 34.253 0 0 1 232.922.391c6.153 1.238 11.971 5.494 13.688 11.531 1.4 4.936-.046 10.251-2.224 14.9s-5.086 8.956-6.848 13.776a31.441 31.441 0 0 0 31.638 42.163c-6.045.811-11.617 3.652-17.526 5.163s-12.883 1.41-17.274-2.824c-4.646-4.479-4.739-11.761-4.514-18.21l1-28.762c.17-4.889.316-9.935-1.448-14.5s-5.954-8.56-10.846-8.518c-3.708.031-6.989 2.278-9.963 4.493s-6.121 4.578-9.814 4.908-7.91-2.4-7.634-6.1" fill="#2f2e41" />
    <path d="M129.135 237.538a15.435 15.435 0 1 1 5.95-29.685 14.84 14.84 0 0 1 1.839.932l62.755-28.17 1.763-17.02 27.051-.725-.179 28.335a15.26 15.26 0 0 1-11.027 14.51l-73.385 20.884a14.455 14.455 0 0 1-.5 1.43 15.492 15.492 0 0 1-14.26 9.508Z" fill="#feb8b8" />
    <path d="M226.202 176.754a6.305 6.305 0 0 1-2.471.668l-19.6 1.205a6.319 6.319 0 0 1-6.687-5.912l-2.151-35a16.13 16.13 0 0 1 32.2-1.981l2.152 35a6.327 6.327 0 0 1-3.441 6.02Z" fill="#ccc" />
    <rect x="67.888" y="231.258" width="120.625" height="9.818" rx="1.778" fill="#3f3d56" />
    <path d="M22.905 231.96v-68.729a9.128 9.128 0 0 1 9.117-9.117h124.833a9.127 9.127 0 0 1 9.117 9.117v68.73a9.127 9.127 0 0 1-9.117 9.116H32.022a9.128 9.128 0 0 1-9.117-9.117Z" fill="#3f3d56" />
    <circle cx="95.94" cy="197.599" r="8.416" fill="#fff" />
  </g>
</svg>