<svg xmlns="http://www.w3.org/2000/svg" viewBox="0 0 86.662 34.417">
  <g fill="currentColor">
    <path d="M85.742 23.5c-15.08 4.763-31.173 5.753-46.696 2.62a98.393 98.393 0 0 1-13.092-3.629c-.915-.317-1.308 1.13-.4 1.448 15.125 5.306 31.377 6.852 47.205 4.233a97.096 97.096 0 0 0 13.38-3.224c.918-.287.53-1.739-.397-1.448z" />
    <path d="m30.86 33.286-2.586-4.865-1.33-2.502-.665-1.247c-.212-.404-.57-.775-.178-1.126.28-.25.767-.408 1.1-.586l1.243-.658 2.484-1.315 4.962-2.634c.854-.454.098-1.75-.756-1.297L29.34 20.13l-2.759 1.463c-.718.378-1.84.722-2.162 1.55-.295.748.151 1.5.492 2.146l1.55 2.922 3.106 5.835c.454.85 1.746.095 1.293-.756zM8.678 10.657a25.132 25.132 0 0 0 6.083 5.62c.36.236.694-.34.336-.576a24.614 24.614 0 0 1-5.948-5.516c-.262-.339-.73.136-.471.472z" />
    <path d="M15.342 9.72 6.64 17.166c-.327.28.147.75.471.471l8.703-7.446c.327-.28-.146-.749-.47-.471z" />
    <path d="M12.068.007C9.498-.035 6.84.442 4.66 1.877A10.069 10.069 0 0 0 .805 6.804C-.73 10.888.04 15.73 2.18 19.453c2.203 3.843 6.149 6.576 10.707 6.194 6.062-.51 11.081-5.39 11.512-11.49.443-6.236-3.753-12.083-9.774-13.708a15.11 15.11 0 0 0-2.554-.446c-.428-.038-.428.628 0 .67 3.155.286 6.134 1.64 8.3 3.971a12.782 12.782 0 0 1 3.356 7.627 11.724 11.724 0 0 1-2.359 8.104 12.257 12.257 0 0 1-7.17 4.41 9.868 9.868 0 0 1-6.255-.668 11.603 11.603 0 0 1-4.482-3.89C1.118 16.883.079 12.42 1.012 8.413c.454-1.936 1.4-3.742 2.873-5.091C5.548 1.795 7.752.997 9.974.759a17.223 17.223 0 0 1 2.098-.09c.427.007.427-.658 0-.666z" />
  </g>
</svg>