<svg xmlns="http://www.w3.org/2000/svg" viewBox="0 0 88.407 43.885">
  <g fill="currentColor">
    <path d="M.918 10.915C16.003 6.153 32.096 5.163 47.615 8.3a98.393 98.393 0 0 1 13.096 3.628c.91.318 1.304-1.13.396-1.447C45.982 5.17 29.73 3.628 13.901 6.248a97.096 97.096 0 0 0-13.38 3.22c-.918.29-.525 1.738.401 1.447z" />
    <path d="m55.801 1.134 2.585 4.86 1.33 2.502.666 1.251c.215.405.574.775.181 1.127-.28.25-.77.408-1.103.586l-1.24.657-2.483 1.315-4.967 2.635c-.854.453-.094 1.746.756 1.292l5.794-3.069 2.76-1.462c.718-.378 1.844-.726 2.165-1.55.291-.748-.151-1.5-.491-2.147L60.2 6.21 57.097.378c-.453-.854-1.75-.095-1.296.756zM76.142 43.695a106.333 106.333 0 0 0 7.284-10.016c2.086-3.261 4.248-6.739 4.837-10.635.469-3.088-.189-6.509-2.377-8.844a7.03 7.03 0 0 0-7.559-1.765c-1.315.499-2.464 1.425-3.073 2.71-.922 1.95-.586 4.157-.234 6.206l1.028-.435c-1.062-2.427-2.396-5.167-5.106-6.047-2.393-.783-5.11.223-6.788 2.003-2.007 2.139-2.423 5.246-1.913 8.035.59 3.205 2.45 5.964 4.422 8.481 2.695 3.432 5.515 6.773 8.278 10.152.453.56 1.247-.238.79-.794l-6.256-7.66c-1.863-2.283-3.817-4.566-5.09-7.25-1.21-2.547-1.743-5.65-.617-8.326.934-2.215 3.24-3.916 5.7-3.783 3.088.166 4.531 3.292 5.609 5.756.272.623 1.126.143 1.024-.435-.295-1.727-.631-3.677.125-5.34.502-1.096 1.485-1.875 2.607-2.268 2.56-.888 5.3.09 6.845 2.268 4.018 5.658-.151 12.623-3.314 17.548a103.831 103.831 0 0 1-7.015 9.645c-.454.556.336 1.354.793.794z" />
  </g>
</svg>