<svg xmlns="http://www.w3.org/2000/svg" viewBox="0 0 62.34 17.456">
  <path d="M.92 10.916C16.004 6.156 32.095 5.164 47.615 8.3a98.394 98.394 0 0 1 13.095 3.626c.912.32 1.305-1.128.398-1.447C45.982 5.171 29.73 3.628 13.9 6.246A97.095 97.095 0 0 0 .522 9.469c-.917.29-.525 1.738.399 1.447Z" fill="currentColor" />
  <path d="m55.802 1.131 2.586 4.864 1.33 2.502.664 1.25c.214.403.574.775.181 1.126-.28.25-.769.408-1.103.585l-1.241.658-2.483 1.317-4.965 2.633c-.853.453-.096 1.748.757 1.295l5.793-3.072 2.758-1.463c.718-.38 1.843-.723 2.165-1.548.293-.75-.149-1.501-.493-2.148L60.2 6.21 57.097.374c-.453-.853-1.749-.096-1.295.757Z" fill="currentColor" />
</svg>