<svg xmlns="http://www.w3.org/2000/svg" viewBox="0 0 190 64">
   <g>
      <g fill="#ff743f">
         <path d="M15.034 18.035c-.646-.301-1.723-.688-3.101-.129-2.11.948-2.455 1.81-2.455 5.34V25.4h5.556v3.618H9.478v17.658H5.043V29.018H2.458V25.4h2.584v-2.154c0-3.359 0-4.133 1.292-6.244 1.378-2.282 3.618-3.058 6.158-3.058 1.163 0 1.982.301 2.542.646v3.446zm8.958 7.365v21.276h-4.435V25.4Zm.215-7.795a2.427 2.427 0 0 1-2.455 2.455c-1.335 0-2.411-1.076-2.411-2.455a2.408 2.408 0 0 1 2.41-2.412c1.38 0 2.456 1.077 2.456 2.412zM49.917 34.4v12.275h-4.435V34.831c0-4.307-1.335-6.202-4.996-6.202-4.134 0-5.814 2.886-5.814 6.633v11.413h-4.435V25.4h4.435v3.446c.603-1.895 3.274-3.618 5.815-3.79 5.77-.431 9.431 2.368 9.431 9.345zm5.039 1.68c0-6.33 4.523-11.068 10.638-11.068 2.11 0 4.694.904 6.116 2.067V14.375h4.48v32.3h-4.48v-1.593c-1.68 1.249-4.005 2.025-6.115 2.025-6.115 0-10.638-4.695-10.638-11.027zm4.48 0c0 4.306 2.971 7.407 6.588 7.407 2.413 0 4.565-1.12 5.686-3.402.602-1.163.947-2.54.947-4.005a9.046 9.046 0 0 0-.947-4.05c-1.12-2.28-3.273-3.358-5.686-3.358-3.617 0-6.589 3.058-6.589 7.408z" />
      </g>
      <g fill="#0e87f9">
         <path d="M126.542 36.45a4.09 4.09 0 0 0-1.465-.33c.868-2.156-.137-4.65-2.31-5.615a4.407 4.407 0 0 0-2.065-.355 4.338 4.338 0 0 0-.268-1.185 4.41 4.41 0 0 0-2.325-2.415 4.458 4.458 0 0 0-1.436-.353l2.72-6.13a4.285 4.285 0 0 0 .065-3.35 4.413 4.413 0 0 0-2.326-2.413 4.421 4.421 0 0 0-3.35-.106 4.287 4.287 0 0 0-2.442 2.29l-6.672 15.024-.025-.236c-.257-2.527-2.519-4.393-5.094-4.193-1.604.135-3.632 1.054-4.193 4.654-.02.14-2.145 14.097 1.613 22.393a1.477 1.477 0 0 0 2.688-1.219c-2.82-6.225-1.957-17.066-1.385-20.719.32-2.066 1.074-2.13 1.525-2.169.95-.09 1.815.614 1.91 1.559l.57 5.31-1.432 3.227a1.475 1.475 0 1 0 2.697 1.196l10.495-23.628c.15-.335.425-.593.777-.724.362-.136.76-.123 1.12.038.362.16.639.447.782.806.138.349.132.725-.018 1.063l-6.774 15.254a1.476 1.476 0 1 0 2.697 1.197l2.391-5.386.003-.004c.149-.335.424-.593.776-.723.365-.138.76-.122 1.12.038.362.16.64.446.782.806.138.348.132.725-.017 1.06l-.7 1.575-2.022 4.55a1.476 1.476 0 1 0 2.699 1.198l2.02-4.55c.313-.704 1.163-1.011 1.897-.687.735.327 1.076 1.165.763 1.869l-2.56 5.767a1.474 1.474 0 0 0 1.348 2.073c.566 0 1.104-.327 1.35-.877l.79-1.78.002-.005c.215-.483.572-.86 1.006-1.06.216-.095.64-.232 1.076-.04.72.32.986 1.366.578 2.283a1.164 1.164 0 0 0-.04.1c-.043.117-4.349 11.935-11.648 18.388a1.473 1.473 0 0 0-.13 2.081 1.474 1.474 0 0 0 2.082.13c7.709-6.813 12.099-18.573 12.456-19.554 1.038-2.404.103-5.144-2.1-6.122zm8.788-30.437-2.558-3.874a1.477 1.477 0 0 0-2.463 1.627l.666 1.01c-10.026-2.103-20.871-1.994-29.997.34a1.477 1.477 0 0 0 .733 2.859c8.644-2.212 18.921-2.302 28.468-.328l-.763.503a1.476 1.476 0 1 0 1.626 2.463l3.871-2.556a1.478 1.478 0 0 0 .633-.935 1.48 1.48 0 0 0-.216-1.109z" />
      </g>
      <g fill="#ff743f">
         <path d="M154.063 46.676V12.777h6.793v33.899Zm18.212-33.899h15.267v6.77h-8.475v27.13h-6.792v-27.13H163.8v-6.77Z" />
      </g>
   </g>
</svg>