<svg viewBox="0 0 34.398 10.584" xmlns="http://www.w3.org/2000/svg">
   <g>
      <path fill="#fcbd1b" d="M52.48 78.141h-3.016c-.133 0-.238.08-.238.238v1.376c0 .133.079.185.211.133.715-.37 3.017-1.614 3.07-1.64.079-.054.105-.107-.027-.107m2.17 3.837h-1.8l-.582-1.032h-3.73l-.53 1.032h-1.825c-.106 0-.212-.08-.132-.212.555-.979 2.99-5.344 3.016-5.397.08-.133.132-.212.344-.212h1.984c.212 0 .265.08.318.212.026.026 2.487 4.392 3.069 5.397.08.132-.027.212-.132.212m9.551-.212V76.37c0-.106.106-.212.238-.212h5.054c1.455 0 2.17.344 2.17 1.508 0 .847-.292 1.111-.715 1.27-.08.027-.08.106 0 .106.688.132.926.45.926 1.323 0 1.27-.767 1.614-1.826 1.614H64.44c-.132 0-.238-.106-.238-.212m2.064-4.366v.927h2.804c.344 0 .53-.133.53-.45 0-.344-.186-.45-.53-.45 0-.027-2.804-.027-2.804-.027zm0 2.25v1.005h2.83c.398 0 .662-.159.662-.503 0-.397-.264-.529-.661-.529 0 .026-2.831.026-2.831.026zm-20.32-3.255v2.937c0 .132.08.106.106 0 .026-.053 1.296-2.275 1.693-2.99.053-.106 0-.185-.132-.185h-1.43c-.158 0-.237.106-.237.238m12.091 1.879h3.122c1.006 0 1.826.661 1.826 1.455v.794c0 .793-.82 1.455-1.826 1.455h-3.65c-1.562 0-2.144-.768-2.197-1.535 0-.08-.026-.238.238-.238h1.826c0 .318.264.476.661.476h2.196c.397 0 .662-.158.662-.476 0-.397-.265-.476-.662-.476h-2.778c-1.56 0-2.117-.794-2.117-1.561v-.609c0-.767.794-1.402 1.747-1.402h3.89c.952 0 1.719.608 1.745 1.376 0 .106.027.238-.238.238H60.63v-.08c-.053-.238-.238-.317-.529-.317h-2.064c-.344 0-.529.106-.529.45-.026.344.185.45.53.45" style="stroke-width:.264583" transform="translate(-41.71 -73.775)" />
   </g>
</svg>