<svg viewBox="0 0 805 140" xmlns="http://www.w3.org/2000/svg">
   <g fill="none" fill-rule="evenodd">
      <g fill="#fff">
         <path d="M606.58 98.645c-.32 0-.53.213-.53.531v7.019c0 .213-.106.32-.32.32h-1.696c-.319 0-.531.213-.531.53v4.15c0 .318.212.53.531.53h1.697c.213 0 .319.108.319.319v12.763c0 4.998 1.962 7.496 7.108 7.496h2.546c.32 0 .532-.213.532-.53v-4.308c0-.32-.213-.531-.532-.531h-1.326c-1.645 0-2.388-.587-2.388-2.394v-12.496c0-.211.107-.318.32-.318h3.394c.32 0 .532-.213.532-.53v-4.15c0-.318-.213-.531-.532-.531h-3.395c-.212 0-.319-.107-.319-.32v-7.018c0-.318-.21-.532-.53-.532h-4.88zm25.889 7.285c-5.093 0-9.02 2.605-10.452 7.072-.53 1.649-.847 3.669-.847 6.327s.37 4.627.9 6.274c1.432 4.467 5.253 7.127 10.663 7.127 4.723 0 8.33-1.809 10.505-4.36.211-.267.211-.534-.053-.745l-3.13-2.767c-.265-.211-.53-.158-.797.107-1.272 1.382-3.128 2.447-5.993 2.447s-4.88-1.383-5.73-3.883c-.212-.584-.372-1.222-.372-1.967 0-.213.107-.318.32-.318h15.755c.37 0 .584-.213.584-.533 0-4.147-.266-5.902-.85-7.71-1.432-4.36-5.252-7.071-10.503-7.071zm.053 5.051c2.386 0 4.297 1.223 4.987 3.296.21.638.317 1.276.317 2.18 0 .214-.106.32-.317.32h-10.026c-.213 0-.32-.106-.32-.32 0-.904.107-1.542.32-2.18.69-2.073 2.599-3.296 5.04-3.296zm31.405-5.051c-3.448 0-5.57 1.276-6.791 3.031h-.053v-1.915c0-.318-.211-.532-.53-.532h-8.011c-.317 0-.53.214-.53.532v4.149c0 .318.213.53.53.53h2.281c.213 0 .32.108.32.319v24.142c0 .211-.107.318-.32.318h-2.281c-.317 0-.53.213-.53.533v4.147c0 .318.213.531.53.531h11.141c.317 0 .53-.213.53-.53v-4.148c0-.32-.213-.533-.53-.533h-2.282c-.212 0-.319-.107-.319-.318v-6.487h.054c1.221 1.753 3.343 3.031 6.79 3.031 4.351 0 7.533-2.075 8.86-6.169.637-1.967.901-3.776.901-7.232s-.264-5.263-.9-7.231c-1.328-4.094-4.51-6.168-8.86-6.168zm-1.539 5.316c2.388 0 4.032 1.171 4.721 3.298.372 1.17.532 2.445.532 4.785s-.16 3.616-.532 4.787c-.69 2.127-2.333 3.296-4.72 3.296-2.442 0-4.085-1.17-4.774-3.296-.373-1.171-.532-2.447-.532-4.787s.16-3.616.532-4.785c.69-2.127 2.332-3.298 4.773-3.298zm27.427-5.316c-5.199 0-9.125 2.605-10.558 7.072-.583 1.807-.847 3.509-.847 6.327s.264 4.52.847 6.327c1.433 4.467 5.36 7.074 10.558 7.074 5.145 0 9.071-2.607 10.503-7.074.584-1.807.85-3.509.85-6.327s-.266-4.52-.85-6.327c-1.432-4.467-5.358-7.072-10.503-7.072zm0 5.316c2.387 0 4.085 1.224 4.774 3.351.424 1.383.53 2.552.53 4.732s-.106 3.403-.53 4.733c-.742 2.127-2.387 3.35-4.774 3.35s-4.086-1.223-4.828-3.35c-.424-1.33-.53-2.553-.53-4.733s.106-3.35.53-4.732c.69-2.127 2.44-3.35 4.828-3.35zm18.461-12.6c-.319 0-.531.212-.531.53v7.019c0 .213-.105.32-.318.32h-1.698c-.317 0-.53.213-.53.531v4.149c0 .318.213.531.53.531h1.698c.213 0 .318.107.318.318v12.763c0 4.998 1.964 7.497 7.11 7.497h2.546c.319 0 .53-.214.53-.532v-4.307c0-.32-.211-.53-.53-.53h-1.326c-1.646 0-2.388-.587-2.388-2.394v-12.496c0-.212.106-.318.319-.318h3.395c.319 0 .53-.214.53-.532v-4.149c0-.318-.211-.53-.53-.53h-3.395c-.213 0-.32-.107-.32-.32v-7.02c0-.317-.21-.53-.53-.53h-4.88zm18.831-2.659c-.317 0-.53.212-.53.531v4.627c0 .318.213.531.53.531h4.882c.318 0 .53-.213.53-.53v-4.628c0-.32-.212-.53-.53-.53h-4.882zm-3.128 10.528c-.32 0-.53.213-.53.531v4.15c0 .317.21.53.53.53h2.281c.211 0 .317.107.317.319v14.57c0 .213-.106.32-.317.32h-2.281c-.32 0-.53.21-.53.53v4.148c0 .32.21.531.53.531h11.14c.319 0 .53-.211.53-.531v-4.147c0-.32-.211-.532-.53-.532h-2.282c-.21 0-.317-.106-.317-.32v-19.567c0-.318-.213-.532-.53-.532h-8.011zM579.6 94.1h12.836c.342 0 .58-.237.58-.58v-2.982c0-.344-.238-.584-.58-.584H579.6a.558.558 0 0 0-.581.584v2.982c0 .343.239.58.581.58M597.89 106.45c-1.688-5.214-5.896-8.085-11.851-8.085-5.926 0-10.117 2.87-11.801 8.086-.702 2.105-.883 3.992-.883 9.175 0 5.183.181 7.07.883 9.178 1.684 5.215 5.875 8.086 11.801 8.086 5.955 0 10.163-2.871 11.851-8.086.702-2.108.883-3.995.883-9.178 0-5.183-.181-7.07-.883-9.175m-18.493 9.175c0-4.863.204-6.423.581-7.6.98-2.847 3.02-4.292 6.061-4.292 3.074 0 5.129 1.445 6.11 4.291.378 1.178.582 2.738.582 7.601 0 4.839-.214 6.452-.581 7.603-.982 2.847-3.039 4.29-6.11 4.29-3.04 0-5.081-1.443-6.062-4.288-.368-1.153-.581-2.766-.581-7.605M573.39 2.154c-.317 0-.53.211-.53.531v1.59c0 .319.213.532.53.532h2.964c.211 0 .317.105.317.318v30.13c0 .213-.106.318-.317.318h-2.964c-.317 0-.53.213-.53.531v1.592c0 .318.213.53.53.53h9.42c.317 0 .53-.212.53-.53v-1.592c0-.318-.213-.531-.53-.531h-2.964c-.21 0-.317-.105-.317-.318V30.8l5.344-6.313 7.78 13.21c.214.317.478.529.901.529h4.287c.317 0 .528-.212.528-.53v-1.592c0-.318-.21-.531-.528-.531h-2.753c-.264 0-.422-.052-.582-.318l-7.727-12.996 5.347-6.366c.21-.265.37-.319.581-.319h3.07c.318 0 .529-.211.529-.529v-1.592c0-.318-.211-.53-.529-.53h-4.022c-.37 0-.636.159-.9.477l-11.326 13.369V2.686c0-.32-.211-.532-.529-.532h-5.61zm38.157 10.238c-3.017 0-5.928.69-7.885 1.803-.266.16-.37.372-.37.69v4.563c0 .318.21.53.528.53h1.746c.319 0 .53-.212.53-.53v-3.131c0-.211.053-.265.264-.371 1.271-.583 3.124-.955 5.08-.955 4.87 0 6.299 1.75 6.299 5.942v2.546c0 .212-.106.318-.317.318h-6.299c-6.085 0-9.58 2.44-9.58 7.479 0 4.934 3.388 7.48 8.469 7.48 4.128 0 6.722-1.592 7.727-3.713h.053v2.653c0 .318.211.53.528.53h5.505c.317 0 .53-.212.53-.53v-1.592c0-.318-.213-.532-.53-.532h-2.964c-.211 0-.318-.104-.318-.318v-14.48c0-6.207-2.698-8.382-8.996-8.382zm5.875 13.845c.21 0 .317.107.317.318v3.874c0 3.5-2.804 5.728-7.144 5.728-4.022 0-6.245-1.75-6.245-4.934 0-3.34 2.17-4.986 7.144-4.986h5.928zm26.725-13.314c-.318 0-.529.211-.529.53v1.591c0 .319.211.53.529.53h2.964c.21 0 .317.107.317.318v13.102c0 4.351-2.91 7.003-6.669 7.003-4.39 0-6.403-2.493-6.403-7.586V13.452c0-.318-.21-.53-.528-.53h-5.61c-.318 0-.53.212-.53.53v1.592c0 .318.212.53.53.53h2.963c.211 0 .318.106.318.318v13.262c0 6.1 3.068 9.602 8.626 9.602 3.334 0 5.98-1.486 7.25-4.032h.053v2.97c0 .319.213.53.53.53h5.609c.317 0 .53-.211.53-.53v-1.591c0-.318-.213-.531-.53-.531h-2.964c-.211 0-.317-.105-.317-.318V13.452c0-.318-.211-.53-.529-.53h-5.61zm28.367-.531c-3.494 0-6.086 1.592-7.304 4.085h-.053v-3.025c0-.318-.21-.53-.528-.53h-5.61c-.318 0-.53.212-.53.53v1.592c0 .318.212.53.53.53h2.963c.211 0 .317.107.317.318v19.362c0 .213-.106.318-.317.318h-2.964c-.317 0-.53.213-.53.531v1.592c0 .318.213.53.53.53h9.42c.318 0 .53-.212.53-.53v-1.592c0-.318-.212-.531-.53-.531h-2.964c-.21 0-.317-.105-.317-.318v-13.05c0-4.402 2.91-7.055 6.722-7.055 4.34 0 6.51 2.495 6.51 7.587v12.518c0 .213-.107.318-.318.318h-2.964c-.317 0-.53.213-.53.531v1.592c0 .319.213.53.53.53h9.367c.317 0 .53-.211.53-.53v-1.592c0-.318-.213-.53-.53-.53h-2.91c-.212 0-.318-.106-.318-.319V22.047c0-6.155-3.175-9.655-8.732-9.655zm20.799-10.238c-.32 0-.53.211-.53.531v2.97c0 .319.21.53.53.53h2.327c.318 0 .53-.211.53-.53v-2.97c0-.32-.212-.531-.53-.531h-2.327zm-3.548 10.769c-.317 0-.528.211-.528.53v1.591c0 .318.211.53.528.53h2.964c.213 0 .318.106.318.318v19.362c0 .213-.105.318-.317.318h-2.964c-.318 0-.529.213-.529.531v1.592c0 .318.211.53.528.53h9.42c.32 0 .53-.212.53-.53v-1.592c0-.318-.21-.531-.53-.531h-2.962c-.212 0-.319-.105-.319-.318V13.452c0-.318-.21-.53-.528-.53h-5.61zm14.871-10.77c-.317 0-.528.212-.528.532v1.59c0 .318.211.532.528.532h2.964c.211 0 .318.104.318.318v30.13c0 .213-.107.318-.317.318h-2.964c-.318 0-.529.213-.529.53v1.593c0 .318.211.53.528.53h9.42c.318 0 .53-.212.53-.53v-1.592c0-.318-.212-.531-.53-.531h-2.962c-.212 0-.319-.105-.319-.318v-13.05c0-4.402 2.911-7.055 6.722-7.055 4.34 0 6.51 2.494 6.51 7.587v12.518c0 .213-.107.318-.317.318h-2.965c-.317 0-.528.213-.528.531v1.592c0 .318.211.53.528.53h9.367c.318 0 .53-.212.53-.53v-1.592c0-.318-.212-.531-.53-.531h-2.91c-.211 0-.318-.105-.318-.318V22.048c0-6.155-3.175-9.656-8.732-9.656-3.492 0-6.086 1.592-7.303 4.085h-.054V2.685c0-.32-.21-.53-.528-.53h-5.61zm41.068 10.239c-4.55 0-7.99 2.334-9.367 6.578-.476 1.538-.74 3.395-.74 6.577 0 3.024.21 4.986.74 6.525 1.43 4.35 4.764 6.684 9.685 6.684 4.182 0 7.356-1.75 9.209-4.245.213-.264.213-.53-.053-.742l-1.216-1.114c-.266-.212-.53-.159-.741.106-1.482 1.857-3.758 3.236-7.04 3.236-3.492 0-6.032-1.644-7.144-4.933-.37-1.114-.53-2.334-.53-4.456 0-.211.107-.371.318-.371h16.46c.37 0 .581-.212.581-.53 0-3.502-.21-5.146-.74-6.738-1.377-4.243-4.816-6.577-9.421-6.577zm0 2.653c3.282 0 5.769 1.59 6.776 4.774.317 1.007.475 2.121.475 3.66 0 .212-.105.318-.317.318h-13.813c-.211 0-.318-.106-.318-.318 0-1.539.16-2.653.477-3.66 1.005-3.184 3.44-4.774 6.72-4.774zm29.055-2.493c-3.545 0-5.874 2.068-6.933 4.667h-.053v-3.767c0-.318-.21-.53-.528-.53h-5.61c-.318 0-.529.212-.529.53v1.592c0 .318.211.53.528.53h2.964c.211 0 .318.106.318.318v19.362c0 .213-.107.318-.318.318h-2.964c-.317 0-.528.213-.528.531v1.592c0 .318.211.53.528.53h9.844c.318 0 .53-.212.53-.53v-1.592c0-.318-.212-.531-.53-.531h-3.387c-.211 0-.318-.105-.318-.318V24.008c0-5.888 2.911-8.646 6.722-8.646 1.27 0 2.434.211 3.175.371.424.107.584-.16.584-.478v-1.75c0-.318-.16-.478-.477-.583-.584-.213-1.536-.371-3.017-.371zm16.83-.16c-3.017 0-5.927.69-7.885 1.803-.264.16-.37.372-.37.69v4.562c0 .319.211.53.528.53h1.748c.317 0 .528-.211.528-.53v-3.13c0-.212.054-.265.265-.372 1.27-.582 3.123-.954 5.08-.954 4.87 0 6.299 1.75 6.299 5.942v2.546c0 .212-.107.318-.318.318h-6.298c-6.086 0-9.578 2.44-9.578 7.479 0 4.934 3.386 7.48 8.466 7.48 4.129 0 6.722-1.592 7.728-3.713h.053v2.652c0 .318.21.53.53.53h5.502c.32 0 .53-.212.53-.53v-1.592c0-.318-.21-.53-.53-.53h-2.962c-.213 0-.319-.106-.319-.319V20.773c0-6.206-2.698-8.381-8.997-8.381zm5.875 13.845c.211 0 .318.106.318.318v3.873c0 3.5-2.805 5.729-7.144 5.729-4.023 0-6.246-1.75-6.246-4.934 0-3.34 2.17-4.986 7.144-4.986h5.928zM583.44 54.796c-3.017 0-5.928.69-7.885 1.803-.266.16-.37.372-.37.69v4.563c0 .318.21.53.528.53h1.746c.319 0 .53-.212.53-.53V58.72c0-.212.053-.265.264-.371 1.271-.583 3.124-.955 5.08-.955 4.87 0 6.299 1.75 6.299 5.942v2.546c0 .212-.106.318-.317.318h-6.299c-6.085 0-9.58 2.44-9.58 7.479 0 4.934 3.388 7.48 8.469 7.48 4.128 0 6.722-1.592 7.727-3.713h.053V80.1c0 .318.211.529.528.529h5.505c.317 0 .53-.211.53-.53v-1.591c0-.319-.213-.53-.53-.53h-2.964c-.211 0-.318-.107-.318-.32v-14.48c0-6.207-2.698-8.382-8.996-8.382zm5.875 13.845c.21 0 .317.106.317.318v3.873c0 3.5-2.804 5.729-7.144 5.729-4.022 0-6.245-1.75-6.245-4.934 0-3.34 2.17-4.986 7.144-4.986h5.928zm11.8-3.5c-.317 0-.528.211-.528.53v1.644c0 .318.211.53.529.53h13.549c.317 0 .53-.212.53-.53V65.67c0-.318-.213-.53-.53-.53h-13.55zm32.6-10.185c-3.545 0-5.872 2.068-6.93 4.667h-.054v-3.767c0-.318-.213-.53-.53-.53h-5.609c-.319 0-.53.212-.53.53v1.592c0 .318.211.53.53.53h2.963c.212 0 .319.106.319.318v19.362c0 .213-.107.32-.32.32h-2.962c-.319 0-.53.211-.53.53v1.591c0 .318.211.53.53.53h9.842c.32 0 .53-.212.53-.53v-1.592c0-.318-.21-.53-.53-.53h-3.385c-.213 0-.318-.106-.318-.32V66.413c0-5.888 2.911-8.646 6.72-8.646 1.272 0 2.436.211 3.175.371.424.107.584-.16.584-.478v-1.75c0-.318-.16-.478-.477-.583-.582-.213-1.535-.371-3.017-.371zm18.419-.16c-4.606 0-8.045 2.386-9.42 6.577-.53 1.697-.848 3.554-.848 6.578 0 3.078.318 4.933.848 6.631 1.375 4.19 4.814 6.578 9.42 6.578 4.657 0 8.097-2.388 9.473-6.578.528-1.698.846-3.553.846-6.63 0-3.025-.318-4.882-.846-6.579-1.376-4.191-4.816-6.577-9.473-6.577zm0 2.757c3.281 0 5.715 1.699 6.72 4.723.477 1.432.688 2.97.688 5.675 0 2.758-.211 4.297-.688 5.729-1.005 3.024-3.439 4.72-6.72 4.72-3.228 0-5.664-1.696-6.67-4.72-.476-1.432-.687-2.971-.687-5.729 0-2.706.21-4.243.688-5.675 1.005-3.024 3.44-4.723 6.669-4.723zm16.14-12.996c-.318 0-.529.212-.529.532v1.59c0 .318.211.531.529.531h2.964c.21 0 .317.105.317.318v30.13c0 .213-.106.32-.317.32h-2.964c-.318 0-.529.211-.529.53v1.591c0 .319.211.53.529.53h9.42c.317 0 .53-.211.53-.53v-1.592c0-.318-.213-.529-.53-.529h-2.964c-.211 0-.318-.107-.318-.32V64.61c0-4.403 2.911-7.056 6.723-7.056 4.34 0 6.509 2.495 6.509 7.587v12.518c0 .214-.106.32-.317.32h-2.964c-.318 0-.53.212-.53.53V80.1c0 .318.212.53.53.53h9.367c.317 0 .53-.212.53-.53v-1.592c0-.318-.213-.53-.53-.53h-2.911c-.211 0-.317-.106-.317-.32V64.451c0-6.155-3.175-9.655-8.733-9.655-3.492 0-6.085 1.592-7.303 4.085h-.053V45.089c0-.32-.211-.531-.529-.531h-5.61zm41.068 10.238c-4.55 0-7.992 2.335-9.367 6.578-.477 1.539-.741 3.396-.741 6.578 0 3.024.21 4.986.74 6.524 1.43 4.35 4.764 6.685 9.685 6.685 4.182 0 7.357-1.75 9.21-4.245.212-.265.212-.53-.054-.743l-1.216-1.112c-.266-.213-.53-.16-.741.105-1.482 1.857-3.758 3.235-7.04 3.235-3.492 0-6.032-1.643-7.143-4.932-.371-1.114-.53-2.335-.53-4.456 0-.212.106-.372.317-.372h16.46c.37 0 .581-.211.581-.53 0-3.501-.21-5.145-.74-6.737-1.376-4.243-4.815-6.578-9.42-6.578zm0 2.653c3.281 0 5.768 1.59 6.775 4.774.317 1.008.475 2.122.475 3.66 0 .212-.105.319-.317.319h-13.813c-.211 0-.318-.107-.318-.318 0-1.539.16-2.653.477-3.66 1.005-3.185 3.44-4.775 6.72-4.775zm39.427-2.653c-4.604 0-8.045 2.387-9.42 6.578-.529 1.697-.848 3.554-.848 6.578 0 3.077.32 4.932.848 6.631 1.375 4.19 4.816 6.578 9.42 6.578 4.657 0 8.097-2.388 9.473-6.578.53-1.699.847-3.554.847-6.631 0-3.024-.317-4.881-.847-6.578-1.376-4.191-4.816-6.578-9.473-6.578zm0 2.758c3.281 0 5.717 1.698 6.722 4.723.475 1.432.688 2.969.688 5.675 0 2.757-.213 4.296-.688 5.728-1.005 3.025-3.441 4.721-6.722 4.721-3.228 0-5.662-1.697-6.667-4.72-.477-1.433-.69-2.971-.69-5.73 0-2.705.213-4.242.69-5.674 1.005-3.025 3.439-4.723 6.667-4.723zM415.82 13.913c3.251 0 5.77.913 7.559 2.736 1.787 1.825 2.682 4.66 2.682 8.506v26.684c0 3.845-.895 6.68-2.682 8.504-1.789 1.826-4.308 2.738-7.559 2.738h-10.142V13.913h10.142zM393 2.769v71.455h22.82c3.186 0 6.176-.405 8.973-1.22 2.794-.816 5.232-2.103 7.315-3.862 2.079-1.76 3.705-4.058 4.875-6.892 1.17-2.834 1.755-6.304 1.755-10.41V25.156c0-4.106-.585-7.577-1.755-10.41-1.17-2.836-2.796-5.133-4.875-6.892-2.083-1.76-4.52-3.046-7.315-3.861-2.797-.814-5.787-1.223-8.973-1.223H393zM183.454 13.913c3.251 0 5.77.913 7.559 2.736 1.787 1.825 2.682 4.66 2.682 8.506v26.684c0 3.845-.895 6.68-2.682 8.504-1.789 1.826-4.308 2.738-7.559 2.738h-10.142V13.913h10.142zm-22.82-11.144v71.455h22.82c3.186 0 6.176-.405 8.973-1.22 2.794-.816 5.232-2.103 7.315-3.862 2.079-1.76 3.705-4.058 4.875-6.892 1.17-2.834 1.755-6.304 1.755-10.41V25.156c0-4.106-.585-7.577-1.756-10.41-1.17-2.836-2.795-5.133-4.874-6.892-2.083-1.76-4.52-3.046-7.315-3.861-2.797-.814-5.787-1.223-8.973-1.223h-22.82zM517.3 2.785h-5.375V45.22l-20.218-34.403-1.592-2.71-.842-1.43-.227-.389-.023.014c-1.168-2.032-3.247-3.443-6.282-3.516h-5.373v64.39c.234 4.32 3.153 6.725 6.779 7.049h5.968V31.419l20.797 35.39.44.868.572 1.132.546 1.078.211.416.096.19.005-.003c1.169 2.242 3.365 3.507 5.923 3.734h5.967V10.111c-.14-3.951-2.664-7.213-7.373-7.325M319 2.785h-5.375V45.22l-20.218-34.403-1.592-2.71-.842-1.43-.227-.389-.023.014c-1.168-2.032-3.25-3.443-6.282-3.516h-5.373v64.39c.232 4.32 3.153 6.725 6.779 7.049h5.968V31.419l20.797 35.39.44.868.572 1.132.546 1.078.211.416.096.19.005-.003c1.169 2.242 3.365 3.507 5.923 3.734h5.967V10.111c-.14-3.951-2.665-7.213-7.373-7.325M457.05 2.785h-5.375v64.39c.234 4.32 3.154 6.726 6.78 7.049h5.968V10.122c-.135-3.957-2.663-7.225-7.373-7.337M254.768 2.244c-.677 0-1.078-.022-1.319-.056V6.08l-.002.014V51.84c0 3.847-.943 6.68-2.827 8.504-1.886 1.826-4.519 2.738-7.901 2.738s-6.015-.912-7.897-2.738c-1.888-1.823-2.831-4.657-2.831-8.504V13.519c-.05-6.118-3.899-11.233-11.177-11.336h-1.5V51.84c0 4.108.603 7.578 1.804 10.41 1.202 2.837 2.862 5.131 4.973 6.89 2.115 1.761 4.584 3.048 7.413 3.863 2.828.812 5.902 1.22 9.215 1.22 3.25 0 6.307-.408 9.168-1.22 2.861-.816 5.347-2.102 7.46-3.863 2.113-1.759 3.77-4.053 4.974-6.89 1.202-2.833 1.804-6.303 1.804-10.41V13.233c-.202-6.013-4.082-10.99-11.358-10.99M363.51 13.45c.695 0 1.106-.021 1.347-.057h11.166c1.309 0 2.31-.574 3-1.727.686-1.144 1.03-2.47 1.031-3.98V7.66a7.612 7.612 0 0 0-.983-3.733c-.658-1.185-1.67-1.773-3.048-1.773h-25.548c-7.309.161-11.163 5.353-11.163 11.542h-.002v48.33c.008.208.015.416.015.711 0 7.374 5.034 11.302 11.108 11.485h25.598c1.373-.002 2.386-.593 3.04-1.775a7.604 7.604 0 0 0 .984-3.735v-.025c-.002-1.505-.346-2.832-1.032-3.978-.69-1.151-1.691-1.727-3-1.727h-13.36c-5.701-.373-10.344 1.523-10.571-5.313l.007-14.502h14.953c1.373 0 2.39-.542 3.047-1.627.656-1.084.984-2.186.984-3.303 0-1.315-.344-2.497-1.035-3.55-.686-1.05-1.688-1.578-2.996-1.578h-14.953l-.007-14.936c.42-5.81 4.307-4.725 11.418-4.725M522.38 132.48c.534 0 .925-.228 1.175-.689.248-.46.373-.957.373-1.494 0-.536-.125-1.034-.373-1.494-.25-.46-.641-.69-1.175-.69h-15.651v-35.97c0-.573-.248-.995-.745-1.263a3.447 3.447 0 0 0-1.662-.403c-.612 0-1.167.135-1.663.403s-.745.69-.745 1.263v38.614c0 .574.229 1.006.688 1.294.46.286.956.43 1.49.43h18.288zm-39.154-1.723c0 .574.248 1.006.745 1.294.496.286 1.05.43 1.662.43.61 0 1.165-.144 1.663-.43.496-.288.745-.72.745-1.294V92.143c0-.574-.249-.995-.745-1.263a3.452 3.452 0 0 0-1.663-.403c-.611 0-1.166.135-1.662.403-.497.268-.745.69-.745 1.263v38.614zM468.95 103.12c.803 0 1.406-.163 1.806-.488.401-.325.603-1.043.603-2.156 0-1.416-.287-2.729-.86-3.935a9.378 9.378 0 0 0-2.465-3.161c-1.07-.9-2.37-1.608-3.899-2.125-1.53-.517-3.247-.777-5.16-.777-1.68 0-3.267.222-4.756.661-1.49.44-2.801 1.16-3.928 2.155-1.128.997-2.016 2.29-2.665 3.88-.65 1.59-.975 3.533-.975 5.83V120.3c0 2.299.325 4.243.975 5.831.649 1.59 1.528 2.884 2.636 3.879 1.108.997 2.407 1.715 3.898 2.155s3.076.661 4.758.661c1.911 0 3.641-.26 5.189-.774 1.548-.52 2.858-1.237 3.926-2.156a9.507 9.507 0 0 0 2.466-3.246 9.447 9.447 0 0 0 .86-3.994c0-1.11-.202-1.84-.603-2.184-.4-.345-1.003-.517-1.806-.517-1.49 0-2.292.556-2.407 1.667-.077.69-.2 1.426-.373 2.212-.172.785-.507 1.522-1.003 2.212s-1.204 1.265-2.12 1.723c-.919.46-2.179.69-3.785.69-2.562 0-4.5-.661-5.818-1.983-1.319-1.32-1.978-3.38-1.978-6.176v-17.296c0-2.795.65-4.855 1.95-6.177 1.297-1.322 3.19-1.982 5.674-1.982 1.606 0 2.895.24 3.87.72.975.477 1.72 1.053 2.235 1.723.518.67.862 1.387 1.032 2.153.172.768.278 1.438.316 2.012.076 1.112.879 1.666 2.407 1.666zm-36.516 28.932c.496-.287.745-.72.745-1.293V92.144c0-.574-.249-.995-.745-1.263-.496-.269-1.051-.404-1.663-.404s-1.166.135-1.663.404c-.496.268-.744.689-.744 1.263v29.362l-14.276-27.983c-.534-.995-1.06-1.752-1.576-2.27-.516-.516-1.213-.776-2.092-.776-.65 0-1.214.127-1.691.374-.479.25-.718.682-.718 1.293v38.614c0 .574.25 1.006.746 1.294.497.286 1.052.43 1.663.43.61 0 1.167-.144 1.663-.43.496-.288.744-.72.744-1.294v-29.362l14.905 28.902c.344.652.775 1.178 1.291 1.58a2.76 2.76 0 0 0 1.748.604c.611 0 1.166-.144 1.663-.43zM389.497 120.3c0 2.797-.69 4.856-2.065 6.177-1.376 1.322-3.267 1.982-5.675 1.982-2.409 0-4.291-.66-5.647-1.982-1.357-1.32-2.034-3.38-2.034-6.177V92.143c0-.574-.25-.995-.746-1.263a3.447 3.447 0 0 0-1.663-.403c-.611 0-1.166.135-1.663.403-.496.268-.744.69-.744 1.263V120.3c0 2.3.324 4.243.975 5.832.649 1.59 1.528 2.884 2.636 3.879 1.108.996 2.427 1.714 3.957 2.155 1.526.44 3.17.661 4.93.661 1.756 0 3.4-.22 4.93-.661 1.527-.44 2.855-1.159 3.984-2.155 1.126-.995 2.014-2.289 2.665-3.88.65-1.588.975-3.531.975-5.83V92.142c0-.574-.257-.995-.775-1.263a3.491 3.491 0 0 0-1.633-.403c-.65 0-1.214.135-1.69.403-.48.268-.717.69-.717 1.263V120.3zm-38.352 0c0 2.797-.668 4.856-2.007 6.177-1.338 1.322-3.19 1.982-5.56 1.982-2.369 0-4.213-.66-5.531-1.982-1.32-1.32-1.979-3.38-1.979-6.177v-17.296c0-2.795.66-4.854 1.979-6.176s3.162-1.983 5.53-1.983c2.37 0 4.223.661 5.561 1.983 1.339 1.322 2.007 3.381 2.007 6.176V120.3zm-2.723 11.866c1.51-.44 2.83-1.158 3.957-2.155 1.125-.995 2.005-2.288 2.636-3.879.63-1.588.946-3.532.946-5.831v-17.296c0-2.298-.315-4.242-.946-5.832-.631-1.588-1.51-2.882-2.636-3.879-1.128-.995-2.447-1.714-3.957-2.155-1.51-.439-3.123-.66-4.845-.66-1.72 0-3.332.221-4.843.66-1.51.44-2.818 1.16-3.926 2.155-1.11.997-1.979 2.29-2.61 3.88-.63 1.59-.944 3.533-.944 5.83V120.3c0 2.299.313 4.243.944 5.831.631 1.59 1.5 2.884 2.61 3.88 1.108.996 2.416 1.714 3.926 2.154s3.124.661 4.843.661c1.722 0 3.335-.22 4.845-.66zM317.38 103.12c.803 0 1.404-.163 1.806-.488.401-.325.601-1.043.601-2.156 0-1.416-.285-2.729-.86-3.935-.572-1.207-1.394-2.26-2.463-3.161-1.071-.9-2.372-1.608-3.9-2.125-1.528-.517-3.248-.777-5.159-.777-1.682 0-3.267.222-4.758.661-1.49.44-2.799 1.16-3.926 2.155-1.128.997-2.018 2.29-2.666 3.88-.651 1.59-.975 3.533-.975 5.83V120.3c0 2.299.324 4.243.975 5.831.648 1.59 1.528 2.884 2.637 3.879 1.108.997 2.408 1.715 3.899 2.155 1.489.441 3.075.661 4.757.661 1.911 0 3.64-.26 5.187-.774 1.55-.52 2.858-1.237 3.929-2.156a9.481 9.481 0 0 0 2.464-3.246 9.42 9.42 0 0 0 .86-3.994c0-1.11-.2-1.84-.601-2.184-.403-.345-1.004-.517-1.807-.517-1.49 0-2.294.556-2.407 1.667-.078.69-.2 1.426-.372 2.212a5.959 5.959 0 0 1-1.004 2.212c-.498.69-1.205 1.265-2.122 1.723-.916.46-2.178.69-3.783.69-2.561 0-4.5-.661-5.82-1.983-1.317-1.32-1.976-3.38-1.976-6.176v-17.296c0-2.795.649-4.855 1.948-6.177s3.191-1.982 5.676-1.982c1.605 0 2.895.24 3.87.72.973.477 1.72 1.053 2.236 1.723s.86 1.387 1.031 2.153c.172.768.277 1.438.316 2.012.076 1.112.879 1.666 2.407 1.666zM259.121 130.75c0 .577.248 1.007.745 1.294.496.286 1.05.43 1.662.43.612 0 1.165-.144 1.663-.43.496-.287.745-.717.745-1.293v-14.536c0-.268.039-.46.115-.576l11.866-22.18c.152-.345.229-.67.229-.975 0-.613-.314-1.102-.945-1.466-.631-.364-1.271-.546-1.92-.546-.69 0-1.262.421-1.721 1.264l-10.032 19.709-10.088-19.71c-.23-.42-.47-.735-.718-.946-.248-.21-.584-.317-1.004-.317-.611 0-1.24.182-1.891.546-.65.364-.975.853-.975 1.466 0 .305.076.63.228.975l11.868 22.18c.116.192.172.384.172.576v14.536zm-44.828-40.278c-.574 0-1.003.23-1.292.69-.286.46-.43.957-.43 1.494 0 .613.153 1.147.46 1.608.305.46.725.689 1.262.689h9.285v35.798c0 .576.249 1.006.747 1.293.496.287 1.05.43 1.663.43a3.27 3.27 0 0 0 1.66-.43c.497-.287.747-.717.747-1.293V94.953h9.229c.572 0 1.003-.238 1.29-.718a3.027 3.027 0 0 0 .429-1.58c0-.536-.144-1.034-.429-1.494-.287-.46-.718-.69-1.29-.69h-23.331zm-17.085 40.279c0 .576.25 1.006.746 1.293.497.286 1.052.43 1.663.43.61 0 1.165-.144 1.663-.43.494-.287.744-.717.744-1.293V92.139c0-.576-.25-.997-.744-1.265a3.471 3.471 0 0 0-1.663-.402c-.611 0-1.166.135-1.663.402-.496.268-.746.69-.746 1.265v38.612zm-14.274-27.638c.803 0 1.406-.162 1.806-.489.401-.323.601-1.043.601-2.153 0-1.418-.285-2.73-.858-3.938-.572-1.204-1.397-2.258-2.465-3.159-1.071-.9-2.37-1.61-3.899-2.125-1.53-.519-3.247-.776-5.158-.776-1.683 0-3.27.22-4.758.66-1.49.441-2.801 1.16-3.928 2.156-1.128.995-2.016 2.288-2.665 3.877-.65 1.59-.975 3.534-.975 5.833v17.296c0 2.298.325 4.243.975 5.832.649 1.59 1.528 2.882 2.636 3.878s2.407 1.715 3.898 2.154c1.491.44 3.076.66 4.76.66 1.91 0 3.64-.257 5.187-.774 1.548-.517 2.856-1.236 3.926-2.155a9.452 9.452 0 0 0 2.466-3.246 9.44 9.44 0 0 0 .858-3.995c0-1.11-.2-1.839-.6-2.182-.401-.344-1.004-.518-1.807-.518-1.49 0-2.292.556-2.407 1.666-.077.69-.2 1.429-.373 2.212a5.918 5.918 0 0 1-1.003 2.213c-.496.689-1.204 1.265-2.122 1.725-.916.458-2.177.69-3.783.69-2.562 0-4.5-.662-5.818-1.984-1.319-1.322-1.978-3.381-1.978-6.176V103c0-2.797.65-4.856 1.95-6.178 1.297-1.32 3.19-1.981 5.674-1.981 1.606 0 2.895.24 3.87.718.975.48 1.72 1.053 2.237 1.723.514.67.858 1.39 1.03 2.156.172.765.278 1.435.316 2.01.076 1.111.879 1.666 2.407 1.666z" />
      </g>
      <path fill="#008590" d="M58.336 74.352h12.965V61.355H58.336zM38.89 61.355v12.997l6.479 6.494 6.487-6.494V61.355l-6.487-6.495zM71.3 80.847H58.335l-6.479 6.496 6.479 6.498H71.3l6.48-6.498zM71.3 41.864H58.335l-6.479 6.496 6.479 6.5H71.3l6.48-6.5zM97.227 74.352h12.963V61.355H97.227zM116.67 61.355v12.997l6.49 6.494 6.48-6.494V61.355l-6.48-6.495zM77.781 61.355v12.997l6.482 6.494 6.485-6.494V61.355l-6.485-6.495zM110.19 80.847H97.227l-6.479 6.496 6.479 6.498h12.963l6.48-6.498zM110.19 41.864H97.227l-6.479 6.496 6.479 6.5h12.963l6.48-6.5zM19.444 74.352h12.964V61.355H19.444zM0 61.355v12.997l6.478 6.494 6.486-6.494V61.355L6.478 54.86zM32.408 80.847H19.445l-6.481 6.496 6.481 6.498h12.963l6.481-6.498zM32.408 41.864H19.445l-6.481 6.496 6.481 6.5h12.963l6.481-6.5zM58.336 35.369h12.965V22.373H58.336zM77.781 22.374V35.37l6.482 6.494 6.485-6.494V22.374l-6.485-6.496zM38.89 22.374V35.37l6.479 6.494 6.487-6.494V22.374l-6.487-6.496zM71.3 2.884H58.335L51.856 9.38l6.479 6.498H71.3l6.48-6.498zM58.336 113.33h12.965v-12.99H58.336zM38.89 100.34v12.99l6.479 6.5 6.487-6.5v-12.99l-6.487-6.499zM71.3 119.83H58.335l-6.479 6.5 6.479 6.49H71.3l6.48-6.49zM77.781 100.34v12.99l6.482 6.5 6.485-6.5v-12.99l-6.485-6.499zM97.227 35.369h6.483l-6.483-6.498zM32.408 35.369h-6.481l6.481-6.498zM32.408 106.83l-6.481-6.49h6.481zM97.227 106.83v-6.49h6.483zM550.52 132.82c-1.441 0-2.61-1.118-2.61-2.5V5.28c0-1.38 1.169-2.5 2.61-2.5s2.61 1.12 2.61 2.5v125.04c0 1.382-1.169 2.5-2.61 2.5" />
   </g>
</svg>