<svg xml:space="preserve" xmlns="http://www.w3.org/2000/svg" viewBox="0 0 183.239 35.401">
  <g>
    <g>
      <path fill="#fff" d="M78.993 27.144v-.085a2.1 2.1 0 0 1 .678-1.487L93.587 9.236H80.735a1.384 1.384 0 0 1-1.403-1.365 1.422 1.422 0 0 1 1.403-1.403H96.44a1.45 1.45 0 0 1 1.572 1.318v.085a2.1 2.1 0 0 1-.678 1.488L83.42 25.703h13.397a1.403 1.403 0 0 1 1.413 1.356 1.422 1.422 0 0 1-1.413 1.403h-16.25a1.478 1.478 0 0 1-1.573-1.318zM102.437 34.76a1.488 1.488 0 0 1-1.017-1.402 1.412 1.412 0 0 1 1.403-1.403 2.476 2.476 0 0 1 .81.17 6.694 6.694 0 0 0 2.382.386c2.043 0 3.239-1.234 4.425-3.917l.17-.339-9.19-19.49a2.222 2.222 0 0 1-.216-.94 1.629 1.629 0 0 1 1.666-1.62 1.732 1.732 0 0 1 1.62 1.327l7.654 17.277 6.845-17.277a1.648 1.648 0 0 1 1.582-1.233 1.62 1.62 0 0 1 1.61 1.62 2.768 2.768 0 0 1-.17.809l-8.596 20.46c-1.883 4.556-4.039 6.213-7.353 6.213a10.357 10.357 0 0 1-3.625-.64z" />
      <path fill="#47bfaf" d="m133.263 26.363-9.67-22.691a2.712 2.712 0 0 1-.273-1.149A2.391 2.391 0 0 1 125.768.16a2.533 2.533 0 0 1 2.486 1.723l7.965 19.932 8.088-20.092A2.523 2.523 0 0 1 146.642.16a2.344 2.344 0 0 1 2.4 2.326 2.881 2.881 0 0 1-.235 1.026l-9.707 22.85a2.89 2.89 0 0 1-2.825 1.978h-.273a2.872 2.872 0 0 1-2.74-1.977ZM172.147 21.994V10.696h-.81a2.128 2.128 0 0 1 0-4.247h.82V2.74a2.467 2.467 0 0 1 4.933 0v3.673h3.88a2.128 2.128 0 1 1 0 4.246h-3.89v10.564c0 1.883.942 2.693 2.646 2.693a12.051 12.051 0 0 0 1.234-.123 2.071 2.071 0 0 1 2.071 2.034 2.109 2.109 0 0 1-1.3 1.883 9.839 9.839 0 0 1-3.389.574c-3.624.038-6.195-1.553-6.195-6.29z" />
      <path fill="#fff" d="M72.214 14.452a1.318 1.318 0 0 1-1.12 1.77h-6.92a1.158 1.158 0 0 0 0 2.317h10.008a1.469 1.469 0 0 0 1.469-1.47c0-5.573-3.54-10.657-9.773-10.657-5.819 0-10.093 4.886-10.093 10.95v.075c0 6.515 4.708 10.95 10.507 10.95a10.714 10.714 0 0 0 7.937-3.173 1.337 1.337 0 0 0-.941-2.363 1.422 1.422 0 0 0-.942.367 8.605 8.605 0 0 1-6.063 2.448 7.174 7.174 0 0 1-6.986-5.49 10.733 10.733 0 0 1-.094-5.14c.781-3.484 3.342-5.95 6.59-5.95a6.336 6.336 0 0 1 6.196 4.65l.075.227c.056.16.113.31.15.49z" />
      <path fill="#47bfaf" d="M165.877 19.075a2.25 2.25 0 0 0 2.24-2.316c0-4.858-3.267-10.357-9.885-10.357-5.941 0-10.16 4.943-10.16 10.96v.084c0 6.497 4.652 10.922 10.677 10.922a10.592 10.592 0 0 0 7.476-2.825 2.1 2.1 0 0 0 .63-1.468 1.883 1.883 0 0 0-1.882-1.959 1.732 1.732 0 0 0-1.215.443 7.466 7.466 0 0 1-4.924 1.826 5.734 5.734 0 0 1-5.809-4.481v-.113a1.46 1.46 0 0 1 0-.217v-.122a8.907 8.907 0 0 1-.056-3.973c.48-3.041 2.429-5.122 5.187-5.122a5.442 5.442 0 0 1 5.442 4.265c.141 1.14-.941 1.27-1.27 1.28h-4.04a1.591 1.591 0 0 0 0 3.183h7.532zM33.5 8.662C32.877 3.22 29.167 0 23.283 0a10.112 10.112 0 0 0-7.193 2.975 11.044 11.044 0 0 0-3.192 7.88v2.929c0 3.766-3.098 3.474-3.098 3.474H8.86a1.582 1.582 0 0 0 0 3.164h2.466c1.62 0 4.708-1.799 4.708-6.13v-3.436a7.918 7.918 0 0 1 2.26-5.65 6.977 6.977 0 0 1 4.952-2.042c4.708 0 7.1 2.372 7.146 7.033v1.563h1.6c3.4 0 7.458 1.11 7.458 6.42a7.127 7.127 0 0 1-3.475 6.102 5.103 5.103 0 0 0 .066-.763 4.651 4.651 0 0 0-3.634-4.538 4.642 4.642 0 0 0-9.057 0 4.708 4.708 0 0 0-3.597 4.557 4.566 4.566 0 0 0 .395 1.817H9.396a6.223 6.223 0 0 1-6.223-6.223c0-3.569 2.42-6.167 5.771-6.167a1.591 1.591 0 0 0 0-3.173C3.841 9.792 0 13.812 0 19.132a9.415 9.415 0 0 0 9.415 9.415H23.52a4.613 4.613 0 0 0 8.766 0A10.357 10.357 0 0 0 42.64 18.19c0-5.545-3.39-9.02-9.142-9.528zM29.6 27.04a1.704 1.704 0 0 1-3.408 0v-1.807h-1.817a1.704 1.704 0 1 1 0-3.409h1.817v-1.817a1.704 1.704 0 0 1 3.408 0v1.817h1.817a1.704 1.704 0 1 1 0 3.409h-1.817z" />
    </g>
  </g>
</svg>