<svg xmlns="http://www.w3.org/2000/svg" viewBox="0 0 338.655 58.993" fill="#fcfcfc">
  <g fill-rule="evenodd">
    <path d="M331.601 22.644h6.243v-1.282q0-5.226-2.642-7.028t-10.236-1.8q-8.02 0-10.7 1.96t-2.672 7.854q0 5.768 2.222 7.519t10.212 2.219l3.528.223q2.987.171 3.887.974t.9 3.242q0 3.3-1.184 4.215t-5.477.912q-5.5 0-6.735-.79t-1.233-4.314l-.024-.716h-6.216l.023 1.233q0 5.871 2.6 7.792t10.545 1.923q8.83 0 11.424-1.959t2.587-8.666q0-5.45-2.206-7.174t-9.732-2.146q-6.366-.345-7.5-.985t-1.133-3.823q0-2.688 1.393-3.527t5.932-.836q3.848 0 4.883.727t1.26 3.562a6.924 6.924 0 0 0 .051.691Zm-55.2 23.84V12.832h16.554q7.055 0 9.88 3.081t2.825 10.8q0 12.6-2.27 16.186t-10.237 3.587Zm6.393-5.369h9.1q4.588 0 5.934-2.109t1.343-9.306q0-7.446-1.207-9.467t-5.67-2.027h-9.5Zm-41.476-28.283v33.652h6.388V35.143h9.2q5.13 0 5.13 5.2v6.139h6.39v-7.419q0-6.187-5.6-6.533v-.221q3.626-.715 4.8-2.589t1.173-6.979q0-5.619-2.345-7.764t-8.534-2.145Zm15.565 16.937h-9.177V18.207h9.623c2.086 0 3.441.349 4.056 1.047s.926 2.247.926 4.647q0 3.523-1.074 4.7t-4.354 1.168Zm-73.189-2.49v-9.072h15.91v-5.375h-22.3v33.652h6.39V32.652h15.1v-5.373Zm-71.587 12.746h14.531l2.144 6.46h6.637l-11.373-33.653h-9.6l-11.2 33.653h6.76Zm7.227-22.239 5.823 17.53h-11.545ZM71.17 12.832v33.652h6.389V35.143h9.2q5.131 0 5.131 5.2v6.139h6.39v-7.419q0-6.187-5.6-6.533v-.221q3.624-.715 4.8-2.589t1.172-6.979q0-5.619-2.344-7.764t-8.535-2.145Zm15.567 16.937h-9.178V18.207h9.622q3.132 0 4.058 1.047t.925 4.647q0 3.523-1.073 4.7t-4.354 1.168Zm54.121 16.715V12.832h16.552q7.056 0 9.881 3.081t2.824 10.8q0 12.6-2.27 16.186t-10.237 3.587Zm6.389-5.369h9.1q4.59 0 5.934-2.109t1.344-9.306q0-7.446-1.208-9.467t-5.674-2.022h-9.5Zm72.77-28.575q9.176 0 11.817 3.045t2.64 13.621q0 11.565-2.653 14.571t-12.841 3.008q-9.176 0-11.865-2.97t-2.689-13.079q0-12.031 2.64-15.115t12.951-3.086Zm-.492 5.474q-6.443 0-7.526 1.651t-1.085 11.44q0 7.247 1.271 8.727t7.486 1.48q5.946 0 7.129-1.664t1.185-10.1q0-8.456-1.121-10t-7.339-1.539Z" />
    <path d="M44.085 51.215a28.435 28.435 0 0 0 10.73-15.259c6.575 12.2-9.425 18.655-15.629 17.949a21.226 21.226 0 0 0 3.143-7.064c1.571-5.1 3.136-10.192 11.493-11.114a26.105 26.105 0 0 1-9.737 15.488ZM27.576 0A28.149 28.149 0 0 1 51.32 43.2a26.36 26.36 0 0 0-23-39.074 20.651 20.651 0 0 0-16.172 7.033 5.22 5.22 0 0 0-4.421-4.121A30.856 30.856 0 0 1 27.576 0Z" fill="#26a146" />
    <path d="M40.176 54.841a9.576 9.576 0 0 1-1.089-.058l-1.576-.179.981-1.248a13.084 13.084 0 0 0 1.8-3.254 20.547 20.547 0 0 1-13.12 4.363A25.944 25.944 0 0 1 4.67 16.115a4.591 4.591 0 1 0-.385-.263 28.2 28.2 0 0 0 23.623 43.142 30.741 30.741 0 0 0 16.612-4.777 17.8 17.8 0 0 1-4.344.625" />
  </g>
</svg>