<svg xml:space="preserve" xmlns="http://www.w3.org/2000/svg" viewBox="0 0 206.266 117.607">
  <defs>
    <clipPath id="a">
      <path fill="#fff" d="M0 0h245.152v20H0Z" />
    </clipPath>
  </defs>
  <g>
    <g>
      <g clip-path="url(#a)" fill-rule="evenodd" clip-rule="evenodd" transform="matrix(.98936 0 0 .98936 0 98.419)">
        <path d="M51.566 3.567h-6.87V.607h17.577v2.96h-6.87v15.22h-3.837V3.568Zm112.979 12.904 2.317-2.295c2.098 1.513 4.195 2.373 6.919 2.373 2.38 0 3.883-.913 3.883-2.295v-.052c0-1.305-.877-2.01-4.947-2.792-4.665-.94-7.295-2.088-7.295-5.454v-.053c0-3.13 3.131-5.297 7.483-5.297 3.193 0 5.729.809 7.952 2.297l-2.066 2.426c-1.973-1.226-3.945-1.878-5.949-1.878-2.254 0-3.569.965-3.569 2.165v.053c0 1.408 1.002 2.035 5.197 2.87 4.634.94 7.045 2.322 7.045 5.35v.052c0 3.418-3.225 5.453-7.828 5.453-3.35 0-6.512-.966-9.142-2.923zm-13.551-6.419V10c0-3.53-3.073-6.461-7.389-6.461-4.315 0-7.327 2.88-7.327 6.41V10c0 3.53 3.074 6.462 7.389 6.462 4.316 0 7.327-2.881 7.327-6.41zm-18.722 0V10c0-5.113 4.72-9.394 11.395-9.394S155 4.836 155 9.948V10c0 5.113-4.72 9.394-11.395 9.394s-11.333-4.23-11.333-9.342zM103.333.606h3.889v7.559h10.556V.606h3.889v18.182h-3.889v-7.662h-10.556v7.662h-3.889zM75 .606h16.207v2.857H78.842v4.728h10.96v2.857h-10.96v4.883h12.522v2.857H75Zm122.778 2.961h-6.869V.607h17.576v2.96h-6.87v15.22h-3.837V3.568ZM28.94 18.788h3.787V2.689L28.94.606ZM0 16.471l2.317-2.295c2.098 1.513 4.196 2.373 6.92 2.373 2.378 0 3.882-.913 3.882-2.295v-.052c0-1.305-.877-2.01-4.947-2.792C3.507 10.47.876 9.322.876 5.956v-.053C.876 2.773 4.008.606 8.36.606c3.193 0 5.729.809 7.952 2.297l-2.067 2.426C12.274 4.103 10.3 3.451 8.297 3.451c-2.254 0-3.57.965-3.57 2.165v.053c0 1.408 1.003 2.035 5.198 2.87 4.634.94 7.045 2.322 7.045 5.35v.052c0 3.418-3.226 5.453-7.828 5.453-3.35 0-6.512-.966-9.142-2.923z" fill="#fff" />
      </g>
      <g>
        <path d="M61.691 0v18.012L73.005 34.53 61.69 51.047V71.04L81.604 34.53z" fill="#c9482c" />
        <path d="M124.822 34.53 61.692 0l19.763 34.53 63.12 36.511Z" fill="#e7792b" />
        <path d="M81.74 33.368 61.69 71.041l40.366-23.763Z" fill="#de492a" />
        <path d="M144.571 0v18.012L133.255 34.53l11.316 16.517V71.04L124.66 34.53Z" fill="#c9482c" />
        <path d="m144.575 0-38.213 22.83 18.634 12.69Z" fill="#de492a" />
      </g>
    </g>
  </g>
</svg>