<svg xmlns="http://www.w3.org/2000/svg" viewBox="0 0 53 53" fill="#fff">
  <path fill="#13b5ea" d="M26.5.053C11.861.053 0 11.762 0 26.204c0 14.441 11.862 26.151 26.5 26.151 14.632 0 26.5-11.71 26.5-26.151C53 11.762 41.132.053 26.5.053Z" />
  <path d="M19.425 25.108a4.201 4.201 0 0 1 4.079-3.154 4.196 4.196 0 0 1 4.082 3.154h-8.16Zm9.642 1.129c.273-.335.376-.774.289-1.236-.355-1.675-1.269-3.016-2.641-3.879a5.934 5.934 0 0 0-3.182-.912 5.952 5.952 0 0 0-3.46 1.089 5.974 5.974 0 0 0-2.513 4.87c0 .487.06.969.179 1.434.605 2.357 2.639 4.14 5.062 4.436a5.68 5.68 0 0 0 2.14-.145 5.924 5.924 0 0 0 1.787-.757c.525-.338 1.008-.794 1.516-1.43l.033-.035c.17-.21.248-.48.216-.741a.829.829 0 0 0-.316-.568.923.923 0 0 0-.555-.197c-.188 0-.463.068-.712.392l-.02.025c-.082.11-.168.223-.265.335a4.374 4.374 0 0 1-1.147.92 4.184 4.184 0 0 1-1.95.493c-2.155-.023-3.474-1.451-3.99-2.778a4.727 4.727 0 0 1-.175-.659l-.004-.063 8.342-.001c.579-.012 1.064-.223 1.366-.593ZM41.223 24.558c-.837 0-1.519.677-1.519 1.509 0 .832.682 1.509 1.52 1.509.835 0 1.515-.677 1.515-1.51 0-.831-.68-1.508-1.516-1.508ZM35.69 21.157a.864.864 0 0 0-.866-.86l-.244-.003c-.74 0-1.44.226-2.03.654a.861.861 0 0 0-1.675.262l.003 9.9a.859.859 0 0 0 1.719 0v-6.088c0-1.973.17-2.798 1.887-3.01.142-.016.295-.017.334-.017.505-.018.872-.37.872-.838Z" />
  <path d="m13.053 26.13 4.451-4.446a.835.835 0 0 0 .253-.603.863.863 0 0 0-1.479-.601l-4.451 4.424-4.47-4.433a.864.864 0 0 0-1.47.61c0 .23.093.448.26.614l4.455 4.432-4.448 4.438a.844.844 0 0 0-.266.616.86.86 0 0 0 .86.858.876.876 0 0 0 .61-.248l4.464-4.442 4.446 4.422a.87.87 0 0 0 .623.27.864.864 0 0 0 .866-.86.854.854 0 0 0-.253-.605l-4.451-4.445ZM41.222 30.216c-2.3 0-4.17-1.861-4.17-4.15 0-2.29 1.87-4.153 4.17-4.153a4.165 4.165 0 0 1 4.166 4.154c0 2.288-1.869 4.149-4.166 4.149Zm.001-10.072c-3.28 0-5.949 2.657-5.949 5.922 0 3.265 2.669 5.921 5.949 5.921 3.279 0 5.946-2.656 5.946-5.92 0-3.266-2.667-5.923-5.946-5.923Z" />
</svg>